<svg width="42" height="31" viewBox="0 0 42 31" fill="none" xmlns="http://www.w3.org/2000/svg">
<path d="M5.14406 30.09H11.2039L15.4485 21.9207L12.5097 16.2697L5.14172 30.09H5.14406ZM38.1039 16.0384L34.7913 22.4113L38.6715 29.9965L41.9864 23.598L38.1039 16.0384ZM37.097 14.0878L30.0234 0.335266L26.5356 6.5002L33.7798 20.4676L37.097 14.0878V14.0878ZM26.0777 22.4977L30.0234 30.0853H36.7513L29.437 16.0221L26.0777 22.4977V22.4977ZM11.5075 14.3284L8.209 7.95089L3.99704 16.0664L7.23252 22.3435L11.5075 14.3284V14.3284ZM3.01121 18.0007L0 23.9554L3.31257 29.9848L6.24902 24.2918L3.01121 17.9984V18.0007ZM25.4143 8.33402L21.9055 14.541L25.0732 20.5704L28.4372 14.0948L25.4143 8.33635V8.33402ZM12.1827 0.0899658L9.15511 5.99092L20.929 28.5505L24.0687 22.5117L18.1187 11.0719L12.1803 0.0899658H12.1827Z" fill="url(#paint0_linear_29493_14940)"/>
<defs>
<linearGradient id="paint0_linear_29493_14940" x1="20.992" y1="0.564191" x2="20.992" y2="40.3594" gradientUnits="userSpaceOnUse">
<stop stop-color="#F2C144"/>
<stop offset="0.24" stop-color="#F1A03B"/>
<stop offset="0.57" stop-color="#F17A31"/>
<stop offset="0.84" stop-color="#F0632A"/>
<stop offset="1" stop-color="#F05A28"/>
</linearGradient>
</defs>
</svg>
