<svg width="37" height="31" viewBox="0 0 37 31" fill="none" xmlns="http://www.w3.org/2000/svg">
<path d="M1.41082 8.24985H0.71715C0.320156 8.24985 0 8.57 0 8.96699C0 9.36399 0.320156 9.68415 0.71715 9.68415H1.41082C1.80782 9.68415 2.12797 9.36399 2.12797 8.96699C2.12797 8.57214 1.80782 8.24985 1.41082 8.24985V8.24985ZM14.6674 18.6976H13.9737C13.5768 18.6976 13.2566 19.0178 13.2566 19.4148C13.2566 19.8118 13.5768 20.1319 13.9737 20.1319H14.6674C15.0644 20.1319 15.3846 19.8118 15.3846 19.4148C15.3846 19.0178 15.0644 18.6976 14.6674 18.6976ZM14.0869 11.8548C14.0869 11.4578 13.7667 11.1377 13.3697 11.1377H10.9728C10.5758 11.1377 10.2557 11.4599 10.2557 11.8548C10.2557 12.2497 10.5758 12.5698 10.9728 12.572H13.3697C13.7667 12.572 14.0869 12.2518 14.0869 11.8548ZM36.8265 7.36195L36.0965 3.26609C35.8916 1.72934 34.5448 0.602388 32.9953 0.677091H4.91333C3.86535 0.634404 2.98172 1.45186 2.93903 2.49984C2.93263 2.66846 2.94757 2.8392 2.98599 3.00355L3.75436 7.36195C3.75436 7.3961 3.75436 7.42811 3.77784 7.46226C3.86962 7.99372 3.59856 8.20716 3.35737 8.28613C2.98386 8.42059 2.79176 8.8304 2.92623 9.20392C3.02868 9.48779 3.29547 9.67561 3.59642 9.67774H34.9056C35.9535 9.71403 36.8329 8.8923 36.8692 7.84219C36.8756 7.67998 36.8585 7.5199 36.8244 7.36195H36.8265ZM27.273 23.7902C26.97 22.2023 26.0628 21.6153 25.0383 21.6153H17.6214C17.2223 21.6196 16.9021 21.944 16.9042 22.341C16.9042 22.7038 17.1774 23.0112 17.5403 23.0496C17.7772 23.0923 18.0312 23.3975 18.1913 24.1637L18.9532 28.3983C19.2414 29.7131 20.3982 30.6565 21.745 30.6736L26.1717 30.6544C27.2197 30.6928 28.1012 29.8753 28.1417 28.8274C28.1481 28.6673 28.1332 28.5093 28.099 28.3535L27.2752 23.7924L27.273 23.7902ZM17.4656 20.181H25.5143C25.5741 20.1789 25.6338 20.1682 25.6936 20.1511C26.4385 20.0038 26.4748 19.3977 26.3766 18.7937L25.3521 13.1589C25.0704 11.6969 24.2209 11.1206 23.1046 11.1206H15.7239C15.3269 11.1249 15.0111 11.4493 15.0153 11.8463C15.0196 12.2027 15.2864 12.5037 15.6386 12.5485C15.884 12.5933 16.1529 12.9199 16.3109 13.7587L17.0878 18.0637V18.0786C17.1689 18.3903 16.9811 18.7104 16.6695 18.7915C16.6631 18.7915 16.6567 18.7958 16.6481 18.7958C16.2746 18.9303 16.0825 19.3401 16.217 19.7136C16.3194 19.9974 16.5862 20.1853 16.8872 20.1874H17.4656V20.181Z" fill="url(#paint0_linear_29493_14981)"/>
<defs>
<linearGradient id="paint0_linear_29493_14981" x1="50.9881" y1="4.7324" x2="8.22801" y2="17.9228" gradientUnits="userSpaceOnUse">
<stop stop-color="#FFF100"/>
<stop offset="1" stop-color="#F05A28"/>
</linearGradient>
</defs>
</svg>
