<svg width="103" height="42" viewBox="0 0 103 42" fill="none" xmlns="http://www.w3.org/2000/svg">
<path fill-rule="evenodd" clip-rule="evenodd" d="M12.0028 11.1255C12.0166 11.8926 12.335 12.6237 12.8894 13.1613C13.4437 13.6989 14.1897 14.0001 14.9667 14H21.5104C21.906 13.9986 22.2849 13.8425 22.5642 13.5658C22.8434 13.2891 23.0002 12.9144 23.0002 12.5238V11.0424C22.9794 8.3727 21.891 5.81932 19.9722 3.93836C18.0534 2.0574 15.4595 1.00129 12.7556 1H11.2448C8.54089 1.00129 5.947 2.0574 4.02818 3.93836C2.10936 5.81932 1.02108 8.3727 1.00024 11.0424V12.5238C1.00024 12.9144 1.15696 13.2891 1.4362 13.5658C1.71545 13.8425 2.09437 13.9986 2.48999 14H9.03374C9.81127 14.0001 10.5578 13.6991 11.113 13.1616C11.6682 12.6241 11.9876 11.8931 12.0028 11.1255ZM12.9945 17V19.5867H11.0055V17H0V23H11.0055V20.408H12.9945V23H24V17H12.9945ZM9.1809 21.1654H1.80326V18.808H9.16497L9.1809 21.1654ZM22.1754 21.1654H14.819V18.808H22.1754V21.1654ZM4.00063 37.9589C2.07949 36.0131 1.00035 33.3747 1.00035 30.6236V26.1492C0.999609 26.1294 1.00284 26.1097 1.00998 26.0913C1.01712 26.0728 1.02801 26.0561 1.04184 26.0421C1.05567 26.0281 1.07219 26.0172 1.0904 26.0099C1.10861 26.0027 1.12815 25.9994 1.1477 26.0001H22.853C22.8724 26.0001 22.8914 26.0039 22.9093 26.0114C22.9272 26.0189 22.9435 26.0299 22.9572 26.0437C22.9709 26.0576 22.9817 26.074 22.9891 26.0921C22.9965 26.1102 23.0002 26.1296 23.0002 26.1492V30.6236C23.0002 33.3747 21.9211 36.0131 20 37.9589C18.0788 39.9047 15.4729 40.9986 12.7553 41H11.2452C8.52764 40.9986 5.92177 39.9047 4.00063 37.9589ZM16.5544 29.1695H7.44617C7.44617 30.27 7.87796 31.3254 8.64667 32.1036C9.41539 32.8817 10.4581 33.319 11.5452 33.319H12.4555C13.5426 33.319 14.5852 32.8817 15.3539 32.1036C16.1226 31.3254 16.5544 30.27 16.5544 29.1695Z" fill="#00003A"/>
<path d="M32 25L32 13H40.0513V15.049H34.4382V18.1136H39V20.1626H34.4382V25H32Z" fill="#00003A"/>
<path d="M42.395 23.0926H44.5701V17.7117H42.395V15.8053H46.9556V18.3531H47.0784C47.5111 16.6546 48.4875 15.8053 50.0078 15.8053H50.9199V18.0681H49.043C48.3765 18.0681 47.8619 18.2641 47.4994 18.656C47.1369 19.048 46.9556 19.5469 46.9556 20.1527V23.0926H50.0253V24.999H42.395V23.0926Z" fill="#00003A"/>
<path d="M60.1572 24.999C59.6309 24.999 59.2041 24.8624 58.8767 24.5892C58.5609 24.3041 58.3797 23.9062 58.3329 23.3955H58.2452C58.0815 23.9894 57.754 24.4407 57.2629 24.7496C56.7834 25.0584 56.1929 25.2128 55.4913 25.2128C54.5908 25.2128 53.8716 24.9693 53.3337 24.4823C52.8075 23.9953 52.5444 23.3183 52.5444 22.4511C52.5444 20.5863 53.895 19.6538 56.5963 19.6538H58.1224V19.1193C58.1224 18.5373 57.9821 18.1037 57.7014 17.8186C57.4325 17.5335 56.9939 17.391 56.3858 17.391C55.8596 17.391 55.4211 17.4979 55.0703 17.7117C54.7195 17.9137 54.4096 18.2047 54.1406 18.5848L52.8075 17.4088C53.1115 16.8624 53.591 16.4229 54.2458 16.0903C54.9007 15.7577 55.7017 15.5915 56.649 15.5915C57.8768 15.5915 58.8299 15.8825 59.5081 16.4645C60.1864 17.0465 60.5255 17.8899 60.5255 18.9946V22.5937C60.5255 22.76 60.584 22.9025 60.7009 23.0213C60.8179 23.1401 60.9582 23.1995 61.1219 23.1995H61.5604V24.999H60.1572ZM56.3508 23.5736C56.877 23.5736 57.3038 23.4489 57.6313 23.1995C57.9587 22.95 58.1224 22.6174 58.1224 22.2017V21.0258H56.649C56.0876 21.0258 55.655 21.1208 55.3509 21.3108C55.0586 21.5009 54.9124 21.786 54.9124 22.1661V22.5224C54.9124 22.8669 55.041 23.1282 55.2983 23.3064C55.5556 23.4845 55.9064 23.5736 56.3508 23.5736Z" fill="#00003A"/>
<path d="M63.3603 24.999V15.8053H65.7459V17.4445H65.8511C66.0733 16.8862 66.4008 16.4407 66.8334 16.1082C67.2661 15.7637 67.8216 15.5915 68.4998 15.5915C69.4003 15.5915 70.1195 15.8943 70.6574 16.5001C71.207 17.1059 71.4818 17.9612 71.4818 19.0658V24.999H69.0787V19.3866C69.0787 18.7689 68.9384 18.2997 68.6577 17.979C68.3887 17.6583 67.9853 17.4979 67.4474 17.4979C66.9913 17.4979 66.5937 17.6226 66.2546 17.8721C65.9155 18.1215 65.7459 18.466 65.7459 18.9055V24.999H63.3603Z" fill="#00003A"/>
<path d="M77.8248 25.2128C76.8425 25.2128 75.983 25.0584 75.2463 24.7496C74.8192 24.5706 74.4492 24.3516 74.1361 24.0928C73.7559 23.7785 73.8149 23.2135 74.1747 22.8761V22.8761C74.5783 22.4977 75.2082 22.5456 75.6673 22.8544C75.835 22.9672 76.0104 23.0644 76.1935 23.146C76.6846 23.3598 77.2343 23.4667 77.8423 23.4667C78.392 23.4667 78.8246 23.3776 79.1404 23.1995C79.4561 23.0094 79.614 22.7422 79.614 22.3977C79.614 22.1245 79.5146 21.9226 79.3158 21.7919C79.1287 21.6612 78.8305 21.5662 78.4212 21.5068L76.9653 21.2752C76.3923 21.192 75.8894 21.0554 75.4568 20.8654C75.0358 20.6635 74.6908 20.3843 74.4219 20.028C74.1646 19.6598 74.0359 19.1906 74.0359 18.6204C74.0359 17.6701 74.3926 16.9278 75.1059 16.3932C75.831 15.8587 76.825 15.5915 78.0879 15.5915C79.4183 15.5915 80.4787 15.8839 81.2692 16.4689C81.6402 16.7434 81.6287 17.2741 81.3207 17.6178V17.6178C80.9477 18.034 80.2824 18.0144 79.787 17.7555C79.7091 17.7148 79.628 17.6765 79.5438 17.6405C79.1111 17.4385 78.6025 17.3376 78.0178 17.3376C77.4915 17.3376 77.0881 17.4266 76.8074 17.6048C76.5268 17.7711 76.3864 18.0206 76.3864 18.3531C76.3864 18.6382 76.4858 18.8461 76.6846 18.9768C76.8834 19.0955 77.1875 19.1846 77.5968 19.244L79.0176 19.4756C79.6023 19.5707 80.111 19.7132 80.5437 19.9033C80.9763 20.0933 81.3213 20.3724 81.5786 20.7407C81.8359 21.1089 81.9645 21.5722 81.9645 22.1304C81.9645 23.0926 81.602 23.8468 80.8769 24.3932C80.1519 24.9396 79.1345 25.2128 77.8248 25.2128Z" fill="#00003A"/>
<path d="M90.7983 15.8053H93.2365L89 27.0045C88.7427 27.6815 88.3919 28.1804 87.9475 28.5011C87.5149 28.8337 86.936 29 86.211 29H84V27.0935H86.2811C86.3981 27.0935 86.4975 27.0579 86.5793 26.9866C86.6729 26.9272 86.7431 26.8441 86.7898 26.7372V26.7372C87.1176 25.8533 87.1102 24.88 86.7692 24.0011L83.5889 15.8053H86.1499L87.5006 19.6716L88.4127 22.4868H88.5355L89.4301 19.6716L90.7983 15.8053Z" fill="#00003A"/>
<path d="M98.8603 25.2128C97.878 25.2128 97.0185 25.0584 96.2818 24.7496C95.5451 24.4407 94.9779 24.0131 94.5803 23.4667L95.9485 22.1839C96.3227 22.6115 96.7495 22.9322 97.229 23.146C97.7202 23.3598 98.2698 23.4667 98.8779 23.4667C99.4275 23.4667 99.8602 23.3776 100.176 23.1995C100.492 23.0094 100.65 22.7422 100.65 22.3977C100.65 22.1245 100.55 21.9226 100.351 21.7919C100.164 21.6612 99.866 21.5662 99.4567 21.5068L98.0008 21.2752C97.4278 21.192 96.925 21.0554 96.4923 20.8654C96.0713 20.6635 95.7263 20.3843 95.4574 20.028C95.2001 19.6598 95.0715 19.1906 95.0715 18.6204C95.0715 17.6701 95.4281 16.9278 96.1415 16.3932C96.8665 15.8587 97.8605 15.5915 99.1234 15.5915C100.819 15.5915 102.076 16.0666 102.895 17.0168L101.649 18.4066C101.38 18.0859 101.024 17.8305 100.579 17.6405C100.147 17.4385 99.638 17.3376 99.0533 17.3376C98.527 17.3376 98.1236 17.4266 97.8429 17.6048C97.5623 17.7711 97.422 18.0206 97.422 18.3531C97.422 18.6382 97.5214 18.8461 97.7202 18.9768C97.919 19.0955 98.223 19.1846 98.6323 19.244L100.053 19.4756C100.638 19.5707 101.146 19.7132 101.579 19.9033C102.012 20.0933 102.357 20.3724 102.614 20.7407C102.871 21.1089 103 21.5722 103 22.1304C103 23.0926 102.637 23.8468 101.912 24.3932C101.187 24.9396 100.17 25.2128 98.8603 25.2128Z" fill="#00003A"/>
</svg>
